<mxfile host="drawio.corp.amazon.com" modified="2024-04-25T15:40:14.375Z" agent="Mozilla/5.0 (Macintosh; Intel Mac OS X 10.15; rv:124.0) Gecko/20100101 Firefox/124.0" etag="Q3zgWwPozsyVNfXgxCk9" version="21.7.4" type="device">
  <diagram name="Page-1" id="4y8WyCn3QAWvvD7TP0kN">
    <mxGraphModel dx="1103" dy="592" grid="1" gridSize="10" guides="1" tooltips="1" connect="1" arrows="1" fold="1" page="1" pageScale="1" pageWidth="1100" pageHeight="850" math="0" shadow="0">
      <root>
        <mxCell id="0" />
        <mxCell id="1" parent="0" />
        <mxCell id="mk9_aw7ktP2tTHp0YjxM-7" value="Request Access" style="edgeStyle=orthogonalEdgeStyle;rounded=0;orthogonalLoop=1;jettySize=auto;html=1;fontColor=#535b63;strokeColor=#535b63;labelPosition=center;verticalLabelPosition=top;align=center;verticalAlign=bottom;" edge="1" parent="1" source="mk9_aw7ktP2tTHp0YjxM-1" target="mk9_aw7ktP2tTHp0YjxM-2">
          <mxGeometry relative="1" as="geometry" />
        </mxCell>
        <mxCell id="mk9_aw7ktP2tTHp0YjxM-1" value="Devices" style="sketch=0;outlineConnect=0;gradientColor=none;fontColor=#535b63;strokeColor=none;fillColor=#535b63;dashed=0;verticalLabelPosition=bottom;verticalAlign=top;align=center;html=1;fontSize=12;fontStyle=0;aspect=fixed;shape=mxgraph.aws4.illustration_devices;pointerEvents=1" vertex="1" parent="1">
          <mxGeometry x="139" y="243" width="100" height="73" as="geometry" />
        </mxCell>
        <mxCell id="mk9_aw7ktP2tTHp0YjxM-9" style="edgeStyle=orthogonalEdgeStyle;rounded=0;orthogonalLoop=1;jettySize=auto;html=1;fontColor=#535b63;strokeColor=#535b63;" edge="1" parent="1" source="mk9_aw7ktP2tTHp0YjxM-2" target="mk9_aw7ktP2tTHp0YjxM-4">
          <mxGeometry relative="1" as="geometry" />
        </mxCell>
        <mxCell id="mk9_aw7ktP2tTHp0YjxM-10" value="Check and &lt;br&gt;verify JWT" style="edgeLabel;html=1;align=left;verticalAlign=middle;resizable=0;points=[];fontColor=#535b63;labelPosition=right;verticalLabelPosition=middle;" vertex="1" connectable="0" parent="mk9_aw7ktP2tTHp0YjxM-9">
          <mxGeometry x="0.148" y="3" relative="1" as="geometry">
            <mxPoint y="1" as="offset" />
          </mxGeometry>
        </mxCell>
        <mxCell id="mk9_aw7ktP2tTHp0YjxM-13" style="edgeStyle=orthogonalEdgeStyle;rounded=0;orthogonalLoop=1;jettySize=auto;html=1;fontColor=#535b63;strokeColor=#535b63;" edge="1" parent="1" source="mk9_aw7ktP2tTHp0YjxM-2" target="mk9_aw7ktP2tTHp0YjxM-3">
          <mxGeometry relative="1" as="geometry" />
        </mxCell>
        <mxCell id="mk9_aw7ktP2tTHp0YjxM-14" value="Request S3 Asset" style="edgeLabel;html=1;align=center;verticalAlign=bottom;resizable=0;points=[];fontColor=#535b63;labelPosition=center;verticalLabelPosition=top;" vertex="1" connectable="0" parent="mk9_aw7ktP2tTHp0YjxM-13">
          <mxGeometry x="0.0397" y="2" relative="1" as="geometry">
            <mxPoint y="1" as="offset" />
          </mxGeometry>
        </mxCell>
        <mxCell id="mk9_aw7ktP2tTHp0YjxM-17" style="edgeStyle=orthogonalEdgeStyle;rounded=0;orthogonalLoop=1;jettySize=auto;html=1;entryX=0;entryY=0.5;entryDx=0;entryDy=0;entryPerimeter=0;fontColor=#535b63;strokeColor=#535b63;" edge="1" parent="1" source="mk9_aw7ktP2tTHp0YjxM-2" target="mk9_aw7ktP2tTHp0YjxM-6">
          <mxGeometry relative="1" as="geometry" />
        </mxCell>
        <mxCell id="mk9_aw7ktP2tTHp0YjxM-18" value="Request&lt;br&gt;&amp;nbsp;/_dashboards" style="edgeLabel;html=1;align=left;verticalAlign=middle;resizable=0;points=[];fontColor=#535b63;labelPosition=right;verticalLabelPosition=middle;" vertex="1" connectable="0" parent="mk9_aw7ktP2tTHp0YjxM-17">
          <mxGeometry x="0.2407" relative="1" as="geometry">
            <mxPoint x="3" y="-23" as="offset" />
          </mxGeometry>
        </mxCell>
        <mxCell id="mk9_aw7ktP2tTHp0YjxM-2" value="Amazon CloudFront" style="sketch=0;points=[[0,0,0],[0.25,0,0],[0.5,0,0],[0.75,0,0],[1,0,0],[0,1,0],[0.25,1,0],[0.5,1,0],[0.75,1,0],[1,1,0],[0,0.25,0],[0,0.5,0],[0,0.75,0],[1,0.25,0],[1,0.5,0],[1,0.75,0]];outlineConnect=0;fontColor=#535b63;fillColor=#8C4FFF;strokeColor=#ffffff;dashed=0;verticalLabelPosition=bottom;verticalAlign=top;align=center;html=1;fontSize=12;fontStyle=0;aspect=fixed;shape=mxgraph.aws4.resourceIcon;resIcon=mxgraph.aws4.cloudfront;" vertex="1" parent="1">
          <mxGeometry x="401" y="240.5" width="78" height="78" as="geometry" />
        </mxCell>
        <mxCell id="mk9_aw7ktP2tTHp0YjxM-3" value="Amazon S3 Bucket&lt;br&gt;with Static Content" style="sketch=0;outlineConnect=0;fontColor=#535b63;gradientColor=none;fillColor=#7AA116;strokeColor=none;dashed=0;verticalLabelPosition=bottom;verticalAlign=top;align=center;html=1;fontSize=12;fontStyle=0;aspect=fixed;pointerEvents=1;shape=mxgraph.aws4.bucket_with_objects;" vertex="1" parent="1">
          <mxGeometry x="642.5" y="240.5" width="75" height="78" as="geometry" />
        </mxCell>
        <mxCell id="mk9_aw7ktP2tTHp0YjxM-11" style="edgeStyle=orthogonalEdgeStyle;rounded=0;orthogonalLoop=1;jettySize=auto;html=1;fontColor=#535b63;strokeColor=#535b63;" edge="1" parent="1" source="mk9_aw7ktP2tTHp0YjxM-4" target="mk9_aw7ktP2tTHp0YjxM-5">
          <mxGeometry relative="1" as="geometry" />
        </mxCell>
        <mxCell id="mk9_aw7ktP2tTHp0YjxM-12" value="Fetch Public Keys" style="edgeLabel;html=1;align=left;verticalAlign=middle;resizable=0;points=[];fontColor=#535b63;labelPosition=right;verticalLabelPosition=middle;" vertex="1" connectable="0" parent="mk9_aw7ktP2tTHp0YjxM-11">
          <mxGeometry x="-0.0588" y="2" relative="1" as="geometry">
            <mxPoint y="6" as="offset" />
          </mxGeometry>
        </mxCell>
        <mxCell id="mk9_aw7ktP2tTHp0YjxM-4" value="AWS Lambda@Edge" style="sketch=0;outlineConnect=0;fontColor=#535b63;gradientColor=none;fillColor=#ED7100;strokeColor=none;dashed=0;verticalLabelPosition=bottom;verticalAlign=top;align=center;html=1;fontSize=12;fontStyle=0;aspect=fixed;pointerEvents=1;shape=mxgraph.aws4.lambda_function;" vertex="1" parent="1">
          <mxGeometry x="416" y="457" width="48" height="48" as="geometry" />
        </mxCell>
        <mxCell id="mk9_aw7ktP2tTHp0YjxM-5" value="Amazon Cognito&lt;br&gt;User Pool" style="sketch=0;points=[[0,0,0],[0.25,0,0],[0.5,0,0],[0.75,0,0],[1,0,0],[0,1,0],[0.25,1,0],[0.5,1,0],[0.75,1,0],[1,1,0],[0,0.25,0],[0,0.5,0],[0,0.75,0],[1,0.25,0],[1,0.5,0],[1,0.75,0]];outlineConnect=0;fontColor=#535b63;fillColor=#DD344C;strokeColor=#ffffff;dashed=0;verticalLabelPosition=bottom;verticalAlign=top;align=center;html=1;fontSize=12;fontStyle=0;aspect=fixed;shape=mxgraph.aws4.resourceIcon;resIcon=mxgraph.aws4.cognito;" vertex="1" parent="1">
          <mxGeometry x="401" y="641" width="78" height="78" as="geometry" />
        </mxCell>
        <mxCell id="mk9_aw7ktP2tTHp0YjxM-15" style="edgeStyle=orthogonalEdgeStyle;rounded=0;orthogonalLoop=1;jettySize=auto;html=1;entryX=1;entryY=0.5;entryDx=0;entryDy=0;entryPerimeter=0;fontColor=#535b63;strokeColor=#535b63;" edge="1" parent="1" source="mk9_aw7ktP2tTHp0YjxM-6" target="mk9_aw7ktP2tTHp0YjxM-5">
          <mxGeometry relative="1" as="geometry">
            <Array as="points">
              <mxPoint x="680" y="680" />
            </Array>
          </mxGeometry>
        </mxCell>
        <mxCell id="mk9_aw7ktP2tTHp0YjxM-16" value="Cognito Authentication" style="edgeLabel;html=1;align=right;verticalAlign=bottom;resizable=0;points=[];fontColor=#535b63;labelPosition=left;verticalLabelPosition=top;" vertex="1" connectable="0" parent="mk9_aw7ktP2tTHp0YjxM-15">
          <mxGeometry x="0.0582" y="-3" relative="1" as="geometry">
            <mxPoint x="-14" as="offset" />
          </mxGeometry>
        </mxCell>
        <mxCell id="mk9_aw7ktP2tTHp0YjxM-6" value="Amazon OpenSearch Service" style="sketch=0;points=[[0,0,0],[0.25,0,0],[0.5,0,0],[0.75,0,0],[1,0,0],[0,1,0],[0.25,1,0],[0.5,1,0],[0.75,1,0],[1,1,0],[0,0.25,0],[0,0.5,0],[0,0.75,0],[1,0.25,0],[1,0.5,0],[1,0.75,0]];outlineConnect=0;fontColor=#535b63;fillColor=#8C4FFF;strokeColor=#ffffff;dashed=0;verticalLabelPosition=bottom;verticalAlign=top;align=center;html=1;fontSize=12;fontStyle=0;aspect=fixed;shape=mxgraph.aws4.resourceIcon;resIcon=mxgraph.aws4.elasticsearch_service;" vertex="1" parent="1">
          <mxGeometry x="641" y="442" width="78" height="78" as="geometry" />
        </mxCell>
      </root>
    </mxGraphModel>
  </diagram>
</mxfile>
